<svg width="28" height="30" viewBox="0 0 28 30" fill="none" xmlns="http://www.w3.org/2000/svg">
<g filter="url(#filter0_dd)">
<path d="M6.3125 5.4375H14.9375V13.3125H6.3125V5.4375Z" fill="#E6F7FF"/>
<path d="M16.625 14.8125C16.625 14.9156 16.5406 15 16.4375 15H13.8125V16.7109H21.6875V8.83594H16.625V14.8125Z" fill="#E6F7FF"/>
<path d="M22.625 7.14844H16.625V4.5C16.625 4.08516 16.2898 3.75 15.875 3.75H6.3125V2.8125C6.3125 2.70937 6.22812 2.625 6.125 2.625H4.8125C4.70937 2.625 4.625 2.70937 4.625 2.8125V21.1875C4.625 21.2906 4.70937 21.375 4.8125 21.375H6.125C6.22812 21.375 6.3125 21.2906 6.3125 21.1875V15H12.125V17.6484C12.125 18.0633 12.4602 18.3984 12.875 18.3984H22.625C23.0398 18.3984 23.375 18.0633 23.375 17.6484V7.89844C23.375 7.48359 23.0398 7.14844 22.625 7.14844ZM6.3125 13.3125V5.4375H14.9375V13.3125H6.3125ZM21.6875 16.7109H13.8125V15H16.4375C16.5406 15 16.625 14.9156 16.625 14.8125V8.83594H21.6875V16.7109Z" fill="#1890FF"/>
</g>
<defs>
<filter id="filter0_dd" x="-2" y="0" width="32" height="32" filterUnits="userSpaceOnUse" color-interpolation-filters="sRGB">
<feFlood flood-opacity="0" result="BackgroundImageFix"/>
<feColorMatrix in="SourceAlpha" type="matrix" values="0 0 0 0 0 0 0 0 0 0 0 0 0 0 0 0 0 0 127 0"/>
<feOffset dy="4"/>
<feGaussianBlur stdDeviation="2"/>
<feColorMatrix type="matrix" values="0 0 0 0 0 0 0 0 0 0 0 0 0 0 0 0 0 0 0.25 0"/>
<feBlend mode="normal" in2="BackgroundImageFix" result="effect1_dropShadow"/>
<feColorMatrix in="SourceAlpha" type="matrix" values="0 0 0 0 0 0 0 0 0 0 0 0 0 0 0 0 0 0 127 0"/>
<feOffset dy="4"/>
<feGaussianBlur stdDeviation="2"/>
<feColorMatrix type="matrix" values="0 0 0 0 0 0 0 0 0 0 0 0 0 0 0 0 0 0 0.25 0"/>
<feBlend mode="normal" in2="effect1_dropShadow" result="effect2_dropShadow"/>
<feBlend mode="normal" in="SourceGraphic" in2="effect2_dropShadow" result="shape"/>
</filter>
</defs>
</svg>
