<svg width="28" height="30" viewBox="0 0 28 30" fill="none" xmlns="http://www.w3.org/2000/svg">
<g filter="url(#filter0_d)">
<path d="M14.7969 8.85938H21.7812V11.2969H14.7969V8.85938ZM7.34375 12.8906H13.2031V20.1094H7.34375V12.8906ZM6.21875 8.85938H13.2031V11.2969H6.21875V8.85938ZM14.7969 12.8906H20.6562V20.1094H14.7969V12.8906Z" fill="#E6F7FF"/>
<path d="M22.625 7.26562H19.1656C19.4844 6.76406 19.6719 6.16875 19.6719 5.53125C19.6719 3.74766 18.2211 2.29688 16.4375 2.29688C15.4672 2.29688 14.593 2.72812 14 3.40781C13.407 2.72812 12.5328 2.29688 11.5625 2.29688C9.77891 2.29688 8.32812 3.74766 8.32812 5.53125C8.32812 6.16875 8.51328 6.76406 8.83438 7.26562H5.375C4.96016 7.26562 4.625 7.60078 4.625 8.01562V12.7031C4.625 12.8062 4.70937 12.8906 4.8125 12.8906H5.75V20.9531C5.75 21.368 6.08516 21.7031 6.5 21.7031H21.5C21.9148 21.7031 22.25 21.368 22.25 20.9531V12.8906H23.1875C23.2906 12.8906 23.375 12.8062 23.375 12.7031V8.01562C23.375 7.60078 23.0398 7.26562 22.625 7.26562ZM13.2031 20.1094H7.34375V12.8906H13.2031V20.1094ZM13.2031 11.2969H6.21875V8.85938H13.2031V11.2969ZM13.2031 7.17188H11.5625C10.6578 7.17188 9.92188 6.43594 9.92188 5.53125C9.92188 4.62656 10.6578 3.89062 11.5625 3.89062C12.4672 3.89062 13.2031 4.62656 13.2031 5.53125V7.17188ZM14.7969 5.53125C14.7969 4.62656 15.5328 3.89062 16.4375 3.89062C17.3422 3.89062 18.0781 4.62656 18.0781 5.53125C18.0781 6.43594 17.3422 7.17188 16.4375 7.17188H14.7969V5.53125ZM20.6562 20.1094H14.7969V12.8906H20.6562V20.1094ZM21.7812 11.2969H14.7969V8.85938H21.7812V11.2969Z" fill="#1890FF"/>
</g>
<defs>
<filter id="filter0_d" x="-2" y="0" width="32" height="32" filterUnits="userSpaceOnUse" color-interpolation-filters="sRGB">
<feFlood flood-opacity="0" result="BackgroundImageFix"/>
<feColorMatrix in="SourceAlpha" type="matrix" values="0 0 0 0 0 0 0 0 0 0 0 0 0 0 0 0 0 0 127 0"/>
<feOffset dy="4"/>
<feGaussianBlur stdDeviation="2"/>
<feColorMatrix type="matrix" values="0 0 0 0 0 0 0 0 0 0 0 0 0 0 0 0 0 0 0.25 0"/>
<feBlend mode="normal" in2="BackgroundImageFix" result="effect1_dropShadow"/>
<feBlend mode="normal" in="SourceGraphic" in2="effect1_dropShadow" result="shape"/>
</filter>
</defs>
</svg>
