<svg width="22" height="23" viewBox="0 0 22 23" fill="none" xmlns="http://www.w3.org/2000/svg">
<g filter="url(#filter0_d)">
<path d="M10.2501 8C10.2501 8.19891 10.3292 8.38968 10.4698 8.53033C10.6105 8.67098 10.8012 8.75 11.0001 8.75C11.1991 8.75 11.3898 8.67098 11.5305 8.53033C11.6711 8.38968 11.7501 8.19891 11.7501 8C11.7501 7.80109 11.6711 7.61032 11.5305 7.46967C11.3898 7.32902 11.1991 7.25 11.0001 7.25C10.8012 7.25 10.6105 7.32902 10.4698 7.46967C10.3292 7.61032 10.2501 7.80109 10.2501 8ZM13.3751 8C13.3751 8.19891 13.4542 8.38968 13.5948 8.53033C13.7355 8.67098 13.9262 8.75 14.1251 8.75C14.3241 8.75 14.5148 8.67098 14.6555 8.53033C14.7961 8.38968 14.8751 8.19891 14.8751 8C14.8751 7.80109 14.7961 7.61032 14.6555 7.46967C14.5148 7.32902 14.3241 7.25 14.1251 7.25C13.9262 7.25 13.7355 7.32902 13.5948 7.46967C13.4542 7.61032 13.3751 7.80109 13.3751 8ZM7.12515 8C7.12515 8.19891 7.20417 8.38968 7.34482 8.53033C7.48547 8.67098 7.67624 8.75 7.87515 8.75C8.07406 8.75 8.26483 8.67098 8.40548 8.53033C8.54613 8.38968 8.62515 8.19891 8.62515 8C8.62515 7.80109 8.54613 7.61032 8.40548 7.46967C8.26483 7.32902 8.07406 7.25 7.87515 7.25C7.67624 7.25 7.48547 7.32902 7.34482 7.46967C7.20417 7.61032 7.12515 7.80109 7.12515 8ZM17.4564 5.2875C17.1033 4.44844 16.597 3.69531 15.9517 3.04844C15.3109 2.40531 14.5502 1.8941 13.7126 1.54375C12.8533 1.18281 11.9408 1 11.0001 1H10.9689C10.022 1.00469 9.10484 1.19219 8.24234 1.56094C7.41196 1.91488 6.65837 2.427 6.02359 3.06875C5.38452 3.71406 4.88296 4.46406 4.53609 5.3C4.17671 6.16563 3.99546 7.08594 4.00015 8.03281C4.00545 9.11792 4.26217 10.187 4.75015 11.1562V13.5312C4.75015 13.7219 4.82587 13.9047 4.96067 14.0395C5.09546 14.1743 5.27828 14.25 5.4689 14.25H7.84546C8.81467 14.738 9.88379 14.9947 10.9689 15H11.0017C11.9376 15 12.8455 14.8188 13.7001 14.4641C14.5335 14.1179 15.2913 13.6126 15.9314 12.9766C16.5767 12.3375 17.0845 11.5906 17.4392 10.7578C17.808 9.89531 17.9955 8.97813 18.0001 8.03125C18.0048 7.07969 17.8205 6.15625 17.4564 5.2875ZM15.0955 12.1313C14.0001 13.2156 12.547 13.8125 11.0001 13.8125H10.9736C10.0314 13.8078 9.09546 13.5734 8.2689 13.1328L8.13765 13.0625H5.93765V10.8625L5.86734 10.7312C5.42671 9.90469 5.19234 8.96875 5.18765 8.02656C5.1814 6.46875 5.77671 5.00625 6.8689 3.90469C7.95952 2.80312 9.41734 2.19375 10.9751 2.1875H11.0017C11.783 2.1875 12.5408 2.33906 13.2548 2.63906C13.9517 2.93125 14.5767 3.35156 15.1142 3.88906C15.6501 4.425 16.072 5.05156 16.3642 5.74844C16.6673 6.47031 16.8189 7.23594 16.8158 8.02656C16.8064 9.58281 16.1955 11.0406 15.0955 12.1313Z" fill="#262626"/>
</g>
<defs>
<filter id="filter0_d" x="-1" y="0" width="24" height="24" filterUnits="userSpaceOnUse" color-interpolation-filters="sRGB">
<feFlood flood-opacity="0" result="BackgroundImageFix"/>
<feColorMatrix in="SourceAlpha" type="matrix" values="0 0 0 0 0 0 0 0 0 0 0 0 0 0 0 0 0 0 127 0"/>
<feOffset dy="4"/>
<feGaussianBlur stdDeviation="2"/>
<feColorMatrix type="matrix" values="0 0 0 0 0 0 0 0 0 0 0 0 0 0 0 0 0 0 0.25 0"/>
<feBlend mode="normal" in2="BackgroundImageFix" result="effect1_dropShadow"/>
<feBlend mode="normal" in="SourceGraphic" in2="effect1_dropShadow" result="shape"/>
</filter>
</defs>
</svg>
